REM DIRINDEX 1\8,1\2\11,1\3\12,1\3\14,1\5\15,1\5\16,1\6\17,1\6\18,1\4\19,1\4\20,1\4\21,1\4\22,1\7\23,1\7\24,1\7\25,1\2\9\26,1\2\9\27,1\2\10\28,1\2\10\29,1\2\10\30,1\2\10\31,1\2\10\32,1\3\13\33,1\3\13\34,1\3\13\35
REM DIRNAME cjc123,folder01,folder02,folder03,folder04,folder05,folder06,folder07,folder08,folder09,folder10,folder11,folder12,folder13,folder14,folder15,folder16,folder17,folder18,folder19,folder20,folder21,folder22,folder23,folder24,folder25,folder26,folder27,folder28,folder29,folder30,folder31,folder32,folder33,folder34
TITLE ""
FILE "114 114_UNIT6_SET5.mp3" MP3
  TRACK 01 AUDIO
    TITLE "14:cjc123_2227"
    INDEX 01 00:00:00
  TRACK 02 AUDIO
    TITLE "0:"
    INDEX 01 00:02:65
  TRACK 03 AUDIO
    TITLE "33:cjc123_2228"
    INDEX 01 00:03:37
  TRACK 04 AUDIO
    TITLE "0:"
    INDEX 01 00:04:72
  TRACK 05 AUDIO
    TITLE "34:cjc123_2229"
    INDEX 01 00:05:10
  TRACK 06 AUDIO
    TITLE "0:"
    INDEX 01 00:06:37
  TRACK 07 AUDIO
    TITLE "35:cjc123_2230"
    INDEX 01 00:07:11
  TRACK 08 AUDIO
    TITLE "0:"
    INDEX 01 00:11:68
  TRACK 09 AUDIO
    TITLE "33:cjc123_2231"
    INDEX 01 00:12:52
  TRACK 10 AUDIO
    TITLE "0:"
    INDEX 01 00:13:59
  TRACK 11 AUDIO
    TITLE "34:cjc123_2232"
    INDEX 01 00:14:17
  TRACK 12 AUDIO
    TITLE "0:"
    INDEX 01 00:15:34
  TRACK 13 AUDIO
    TITLE "35:cjc123_2233"
    INDEX 01 00:16:08
  TRACK 14 AUDIO
    TITLE "0:"
    INDEX 01 00:20:12
  TRACK 15 AUDIO
    TITLE "33:cjc123_2234"
    INDEX 01 00:20:61
  TRACK 16 AUDIO
    TITLE "0:"
    INDEX 01 00:21:72
  TRACK 17 AUDIO
    TITLE "34:cjc123_2235"
    INDEX 01 00:22:15
  TRACK 18 AUDIO
    TITLE "0:"
    INDEX 01 00:23:36
  TRACK 19 AUDIO
    TITLE "35:cjc123_2236"
    INDEX 01 00:24:12
  TRACK 20 AUDIO
    TITLE "0:"
    INDEX 01 00:29:46
  TRACK 21 AUDIO
    TITLE "33:cjc123_2237"
    INDEX 01 00:30:20
  TRACK 22 AUDIO
    TITLE "0:"
    INDEX 01 00:31:39
  TRACK 23 AUDIO
    TITLE "34:cjc123_2238"
    INDEX 01 00:31:57
  TRACK 24 AUDIO
    TITLE "0:"
    INDEX 01 00:32:72
  TRACK 25 AUDIO
    TITLE "35:cjc123_2239"
    INDEX 01 00:33:58
  TRACK 26 AUDIO
    TITLE "0:"
    INDEX 01 00:38:65
  TRACK 27 AUDIO
    TITLE "33:cjc123_2240"
    INDEX 01 00:39:51
  TRACK 28 AUDIO
    TITLE "0:"
    INDEX 01 00:40:68
  TRACK 29 AUDIO
    TITLE "34:cjc123_2241"
    INDEX 01 00:41:06
  TRACK 30 AUDIO
    TITLE "0:"
    INDEX 01 00:42:12
  TRACK 31 AUDIO
    TITLE "35:cjc123_2242"
    INDEX 01 00:42:70
  TRACK 32 AUDIO
    TITLE "0:"
    INDEX 01 00:48:06
  TRACK 33 AUDIO
    TITLE "33:cjc123_2243"
    INDEX 01 00:48:55
  TRACK 34 AUDIO
    TITLE "0:"
    INDEX 01 00:50:15
  TRACK 35 AUDIO
    TITLE "34:cjc123_2244"
    INDEX 01 00:50:37
  TRACK 36 AUDIO
    TITLE "0:"
    INDEX 01 00:51:69
  TRACK 37 AUDIO
    TITLE "35:cjc123_2245"
    INDEX 01 00:52:47
  TRACK 38 AUDIO
    TITLE "0:"
    INDEX 01 00:56:51
  TRACK 39 AUDIO
    TITLE "33:cjc123_2246"
    INDEX 01 00:57:29
  TRACK 40 AUDIO
    TITLE "0:"
    INDEX 01 00:58:69
  TRACK 41 AUDIO
    TITLE "34:cjc123_2247"
    INDEX 01 00:59:26
  TRACK 42 AUDIO
    TITLE "0:"
    INDEX 01 01:00:59
  TRACK 43 AUDIO
    TITLE "35:cjc123_2248"
    INDEX 01 01:01:36
  TRACK 44 AUDIO
    TITLE "0:"
    INDEX 01 01:06:12
  TRACK 45 AUDIO
    TITLE "33:cjc123_2249"
    INDEX 01 01:06:67
  TRACK 46 AUDIO
    TITLE "0:"
    INDEX 01 01:08:21
  TRACK 47 AUDIO
    TITLE "34:cjc123_2250"
    INDEX 01 01:08:35
  TRACK 48 AUDIO
    TITLE "0:"
    INDEX 01 01:09:69
  TRACK 49 AUDIO
    TITLE "35:cjc123_2251"
    INDEX 01 01:10:51
  TRACK 50 AUDIO
    TITLE "0:"
    INDEX 01 01:14:74
  TRACK 51 AUDIO
    TITLE "33:cjc123_2252"
    INDEX 01 01:15:50
  TRACK 52 AUDIO
    TITLE "0:"
    INDEX 01 01:17:53
  TRACK 53 AUDIO
    TITLE "34:cjc123_2253"
    INDEX 01 01:18:07
  TRACK 54 AUDIO
    TITLE "0:"
    INDEX 01 01:19:74
  TRACK 55 AUDIO
    TITLE "35:cjc123_2254"
    INDEX 01 01:20:51
  TRACK 56 AUDIO
    TITLE "0:"
    INDEX 01 01:26:38
  TRACK 57 AUDIO
    TITLE "33:cjc123_2255"
    INDEX 01 01:27:14
  TRACK 58 AUDIO
    TITLE "0:"
    INDEX 01 01:28:39
  TRACK 59 AUDIO
    TITLE "34:cjc123_2256"
    INDEX 01 01:28:67
  TRACK 60 AUDIO
    TITLE "0:"
    INDEX 01 01:30:15
  TRACK 61 AUDIO
    TITLE "35:cjc123_2257"
    INDEX 01 01:30:66
  TRACK 62 AUDIO
    TITLE "0:"
    INDEX 01 01:36:27
  TRACK 63 AUDIO
    TITLE "33:cjc123_2258"
    INDEX 01 01:37:03
  TRACK 64 AUDIO
    TITLE "0:"
    INDEX 01 01:38:24
  TRACK 65 AUDIO
    TITLE "34:cjc123_2259"
    INDEX 01 01:38:49
  TRACK 66 AUDIO
    TITLE "0:"
    INDEX 01 01:39:63
  TRACK 67 AUDIO
    TITLE "35:cjc123_2260"
    INDEX 01 01:40:36
  TRACK 68 AUDIO
    TITLE "0:"
    INDEX 01 01:45:45
  TRACK 69 AUDIO
    TITLE "33:cjc123_2261"
    INDEX 01 01:46:27
  TRACK 70 AUDIO
    TITLE "0:"
    INDEX 01 01:47:46
  TRACK 71 AUDIO
    TITLE "34:cjc123_2262"
    INDEX 01 01:47:72
  TRACK 72 AUDIO
    TITLE "0:"
    INDEX 01 01:49:18
  TRACK 73 AUDIO
    TITLE "35:cjc123_2263"
    INDEX 01 01:49:71
  TRACK 74 AUDIO
    TITLE "0:"
    INDEX 01 01:54:01
  TRACK 75 AUDIO
    TITLE "33:cjc123_2264"
    INDEX 01 01:54:54
  TRACK 76 AUDIO
    TITLE "0:"
    INDEX 01 01:56:06
  TRACK 77 AUDIO
    TITLE "34:cjc123_2265"
    INDEX 01 01:56:34
  TRACK 78 AUDIO
    TITLE "0:"
    INDEX 01 01:57:51
  TRACK 79 AUDIO
    TITLE "35:cjc123_2266"
    INDEX 01 01:58:25
  TRACK 80 AUDIO
    TITLE "0:"
    INDEX 01 02:03:18
  TRACK 81 AUDIO
    TITLE "33:cjc123_2267"
    INDEX 01 02:03:69
  TRACK 82 AUDIO
    TITLE "0:"
    INDEX 01 02:06:08
  TRACK 83 AUDIO
    TITLE "34:cjc123_2268"
    INDEX 01 02:06:32
  TRACK 84 AUDIO
    TITLE "0:"
    INDEX 01 02:08:58
  TRACK 85 AUDIO
    TITLE "35:cjc123_2269"
    INDEX 01 02:09:36
  TRACK 86 AUDIO
    TITLE "0:"
    INDEX 01 02:15:21
  TRACK 87 AUDIO
    TITLE "33:cjc123_2270"
    INDEX 01 02:15:70
  TRACK 88 AUDIO
    TITLE "0:"
    INDEX 01 02:17:20
  TRACK 89 AUDIO
    TITLE "34:cjc123_2271"
    INDEX 01 02:17:45
  TRACK 90 AUDIO
    TITLE "0:"
    INDEX 01 02:19:01
  TRACK 91 AUDIO
    TITLE "35:cjc123_2272"
    INDEX 01 02:19:46
  TRACK 92 AUDIO
    TITLE "0:"
    INDEX 01 02:23:05
